<?xml version="1.0" encoding="iso-8859-1"?>
<!-- Generator: Adobe Illustrator 18.1.1, SVG Export Plug-In . SVG Version: 6.00 Build 0)  -->
<svg version="1.1" id="Capa_1" xmlns="http://www.w3.org/2000/svg" xmlns:xlink="http://www.w3.org/1999/xlink" x="0px" y="0px"
	 viewBox="0 0 478.165 478.165" style="enable-background:new 0 0 478.165 478.165;" xml:space="preserve">
<g>
	<path id="Windows_2_" d="M97.605,45.097c30.124-11.954,56.523-18.031,80.75-18.509c12.651,0,24.725,1.395,36.022,4.005
		c17.294,4.443,41.381,17.333,50.367,22.613L221.39,200.62c-22.035-14.046-48.653-27.634-84.635-28.072l0,0
		c-24.048,0-50.148,5.579-80.451,16.855L97.605,45.097z M165.365,398.799c10.739-36.281,36.54-123.685,44.131-149.825
		c-5.479-3.347-11.257-6.834-17.055-9.882c-22.255-11.416-43.911-17.214-64.293-17.214c-2.789,0-5.599,0.139-8.388,0.379
		c-26.14,2.132-49.928,8.986-65.309,14.305c-4.025,1.434-8.208,3.048-12.472,4.841L0,386.128
		c28.889-10.679,54.351-15.819,77.702-15.819C115.377,370.309,142.832,384.275,165.365,398.799z M420.785,290.893
		c-27.235,8.866-53.634,13.209-78.08,13.209c-44.828,0-76.128-14.484-95.952-28.212l-42.258,145.9
		c12.592,7.232,54.67,29.786,86.926,29.786c26.12,0,55.168-6.635,89.158-20.262L420.785,290.893z M478.165,93.212
		c-27.514,10.699-54.232,16.058-79.893,16.058c-42.855,0-74.295-14.723-94.796-28.969L260.56,228.174
		c28.909,18.409,59.83,27.793,92.505,27.793c26.618,0,54.132-6.276,82.025-18.907l-0.259-0.996l1.813-0.418L478.165,93.212z"/>
</g>
<g>
</g>
<g>
</g>
<g>
</g>
<g>
</g>
<g>
</g>
<g>
</g>
<g>
</g>
<g>
</g>
<g>
</g>
<g>
</g>
<g>
</g>
<g>
</g>
<g>
</g>
<g>
</g>
<g>
</g>
</svg>
