<?xml version="1.0" encoding="UTF-8" standalone="no"?>
<svg
   xmlns:dc="http://purl.org/dc/elements/1.1/"
   xmlns:cc="http://creativecommons.org/ns#"
   xmlns:rdf="http://www.w3.org/1999/02/22-rdf-syntax-ns#"
   xmlns:svg="http://www.w3.org/2000/svg"
   xmlns="http://www.w3.org/2000/svg"
   xmlns:sodipodi="http://sodipodi.sourceforge.net/DTD/sodipodi-0.dtd"
   xmlns:inkscape="http://www.inkscape.org/namespaces/inkscape"
   width="210mm"
   height="297mm"
   viewBox="0 0 210 297"
   version="1.1"
   id="svg3940"
   inkscape:version="1.0.2-2 (e86c870879, 2021-01-15)"
   sodipodi:docname="funtoon_icon.svg">
  <defs
     id="defs3934">
    <clipPath
       clipPathUnits="userSpaceOnUse"
       id="clipPath2982">
      <path
         d="m 1230.209,447.237 -92.11,-54.532 c -4.845,-2.868 -6.396,-9.125 -3.485,-13.945 v 0 c 10.11,-16.741 36.394,-51.046 82.389,-51.9 v 0 c 5.12,-0.095 9.452,3.792 10.076,8.874 v 0 l 12.909,105.108 c 0.506,4.126 -2.801,7.318 -6.471,7.318 v 0 c -1.101,0 -2.235,-0.287 -3.308,-0.923"
         id="path2980" />
    </clipPath>
    <clipPath
       clipPathUnits="userSpaceOnUse"
       id="clipPath3050">
      <path
         d="m 1230.209,447.237 -92.11,-54.532 c -4.845,-2.868 -6.396,-9.125 -3.485,-13.945 v 0 c 10.11,-16.741 36.394,-51.046 82.389,-51.9 v 0 c 5.12,-0.095 9.452,3.792 10.076,8.874 v 0 l 12.909,105.108 c 0.506,4.126 -2.801,7.318 -6.471,7.318 v 0 c -1.101,0 -2.235,-0.287 -3.308,-0.923"
         id="path3048" />
    </clipPath>
    <clipPath
       clipPathUnits="userSpaceOnUse"
       id="clipPath3090">
      <path
         d="M 0,1855.184 H 1366 V 0 H 0 Z"
         id="path3088" />
    </clipPath>
  </defs>
  <sodipodi:namedview
     id="base"
     pagecolor="#ffffff"
     bordercolor="#666666"
     borderopacity="1.0"
     inkscape:pageopacity="0.0"
     inkscape:pageshadow="2"
     inkscape:zoom="0.35"
     inkscape:cx="779.15783"
     inkscape:cy="1249.8922"
     inkscape:document-units="mm"
     inkscape:current-layer="layer1"
     inkscape:document-rotation="0"
     showgrid="false"
     inkscape:window-width="1346"
     inkscape:window-height="1198"
     inkscape:window-x="2898"
     inkscape:window-y="173"
     inkscape:window-maximized="0" />
  <metadata
     id="metadata3937">
    <rdf:RDF>
      <cc:Work
         rdf:about="">
        <dc:format>image/svg+xml</dc:format>
        <dc:type
           rdf:resource="http://purl.org/dc/dcmitype/StillImage" />
        <dc:title></dc:title>
      </cc:Work>
    </rdf:RDF>
  </metadata>
  <g
     inkscape:label="Layer 1"
     inkscape:groupmode="layer"
     id="layer1">
    <g
       id="g2804"
       transform="matrix(0.73141828,0,0,-0.73141828,199.36029,113.10534)">
      <path
         d="m 0,0 c 22.515,-76.292 -13.691,-159.279 -106.937,-175.963 -93.246,-16.683 -57.417,-71.298 -57.417,-71.298 -161.296,163.72 -83.237,227.645 -55.015,253.455 32.748,29.951 142.663,78.169 65.657,144.054 0,0 123.518,-47.931 153.712,-150.248"
         style="fill:#d89700;fill-opacity:1;fill-rule:nonzero;stroke:none"
         id="path2806" />
    </g>
    <g
       id="g2956"
       transform="matrix(0.73141828,0,0,-0.73141828,192.09396,105.37331)">
      <path
         d="m 0,0 c 22.222,-96.665 -14.476,-167.206 -107.721,-183.89 -93.246,-16.682 -46.699,-73.942 -46.699,-73.942 -161.296,163.72 -59.382,203.721 -40.786,237.14 0,0 146.974,85.261 69.968,151.146 0,0 107.185,-51.922 125.238,-130.454"
         style="fill:#ed0a46;fill-opacity:1;fill-rule:nonzero;stroke:none"
         id="path2958" />
    </g>
    <g
       id="g2960"
       transform="matrix(0.73141828,0,0,-0.73141828,175.4585,156.56761)">
      <path
         d="m 0,0 c 0,-53.804 -43.617,-97.421 -97.422,-97.421 -53.805,0 -97.422,43.617 -97.422,97.421 0,53.805 43.617,97.422 97.422,97.422 C -43.617,97.422 0,53.805 0,0"
         style="fill:#ede9c3;fill-opacity:1;fill-rule:nonzero;stroke:none"
         id="path2962" />
    </g>
    <g
       id="g2964"
       transform="matrix(0.73141828,0,0,-0.73141828,175.4585,156.56761)">
      <path
         d="m 0,0 c 0,-53.804 -43.617,-97.421 -97.422,-97.421 -53.805,0 -97.422,43.617 -97.422,97.421 0,53.805 43.617,97.422 97.422,97.422 C -43.617,97.422 0,53.805 0,0 Z"
         style="fill:none;stroke:#56043f;stroke-width:23.035;stroke-linecap:butt;stroke-linejoin:miter;stroke-miterlimit:10;stroke-dasharray:none;stroke-opacity:1"
         id="path2966" />
    </g>
    <g
       id="g2968"
       transform="matrix(0.73141828,0,0,-0.73141828,104.20234,131.51369)">
      <path
         d="m 0,0 c -0.664,0 -1.323,-0.022 -1.977,-0.065 -2.144,-0.142 -3.775,-1.998 -3.775,-4.149 v -18.821 c 0,-2.301 -1.865,-4.166 -4.165,-4.166 h -20.029 c -2.103,0 -3.929,-1.56 -4.138,-3.652 -0.331,-3.307 -0.19,-6.753 0.528,-10.289 2.99,-14.701 15.563,-25.943 30.509,-27.234 20.29,-1.753 37.301,14.198 37.301,34.122 C 34.254,-15.336 18.918,0 0,0"
         style="fill:#4f1c44;fill-opacity:1;fill-rule:nonzero;stroke:none"
         id="path2970" />
    </g>
    <g
       id="g2972"
       transform="matrix(0.73141828,0,0,-0.73141828,103.84519,92.784941)">
      <path
         d="m 0,0 c 10.111,-16.741 36.395,-51.046 82.39,-51.899 5.12,-0.096 9.452,3.791 10.076,8.874 l 12.908,105.107 c 0.658,5.364 -5.128,9.149 -9.778,6.396 L 3.486,13.945 C -1.359,11.077 -2.91,4.82 0,0"
         style="fill:#ffffff;fill-opacity:1;fill-rule:nonzero;stroke:none"
         id="path2974" />
    </g>
    <g
       id="g2976"
       transform="matrix(0.73141828,0,0,-0.73141828,-726.03178,369.81685)">
      <g
         id="g2978"
         clip-path="url(#clipPath2982)">
        <g
           id="g2984"
           transform="translate(1215.5099,479.1857)">
          <path
             d="M 0,0 C 0,0 39.238,-49.605 93.111,-46.404 L 72.246,-89.609 -7.7,-54.938 -36.503,-14.935 Z"
             style="fill:#ed0a46;fill-opacity:1;fill-rule:nonzero;stroke:none"
             id="path2986" />
        </g>
        <g
           id="g2988"
           transform="translate(1215.5099,479.1857)">
          <path
             d="M 0,0 C 0,0 39.238,-49.605 93.111,-46.404 L 72.246,-89.609 -7.7,-54.938 -36.503,-14.935 Z"
             style="fill:none;stroke:#ed0a46;stroke-width:23.035;stroke-linecap:butt;stroke-linejoin:miter;stroke-miterlimit:10;stroke-dasharray:none;stroke-opacity:1"
             id="path2990" />
        </g>
        <g
           id="g2992"
           transform="translate(1191.6857,455.3615)">
          <path
             d="M 0,0 C 0,0 28.829,-57.533 93.111,-46.404 L 72.246,-89.609 -7.7,-54.938 -36.503,-14.935 Z"
             style="fill:#35e61a;fill-opacity:1;fill-rule:nonzero;stroke:none"
             id="path2994" />
        </g>
        <g
           id="g2996"
           transform="translate(1191.6857,455.3615)">
          <path
             d="M 0,0 C 0,0 28.829,-57.533 93.111,-46.404 L 72.246,-89.609 -7.7,-54.938 -36.503,-14.935 Z"
             style="fill:none;stroke:#ed0a46;stroke-width:23.035;stroke-linecap:butt;stroke-linejoin:miter;stroke-miterlimit:10;stroke-dasharray:none;stroke-opacity:1"
             id="path2998" />
        </g>
        <g
           id="g3000"
           transform="translate(1173.7374,428.1789)">
          <path
             d="M 0,0 C 0,0 28.487,-53.12 93.111,-46.404 L 72.246,-89.609 -7.7,-54.939 -36.503,-14.935 Z"
             style="fill:#ed0a46;fill-opacity:1;fill-rule:nonzero;stroke:none"
             id="path3002" />
        </g>
        <g
           id="g3004"
           transform="translate(1173.7374,428.1789)">
          <path
             d="M 0,0 C 0,0 28.487,-53.12 93.111,-46.404 L 72.246,-89.609 -7.7,-54.939 -36.503,-14.935 Z"
             style="fill:none;stroke:#ed0a46;stroke-width:23.035;stroke-linecap:butt;stroke-linejoin:miter;stroke-miterlimit:10;stroke-dasharray:none;stroke-opacity:1"
             id="path3006" />
        </g>
        <g
           id="g3008"
           transform="translate(1146.34,413.2462)">
          <path
             d="M 0,0 C 0,0 30.71,-61.614 95.261,-57.764 L 82.794,-107.439 -21.95,-50.446 -51.602,3.466 Z"
             style="fill:#ffef24;fill-opacity:1;fill-rule:nonzero;stroke:none"
             id="path3010" />
        </g>
        <g
           id="g3012"
           transform="translate(1146.34,413.2462)">
          <path
             d="M 0,0 C 0,0 30.71,-61.614 95.261,-57.764 L 82.794,-107.439 -21.95,-50.446 -51.602,3.466 Z"
             style="fill:none;stroke:#ed0a46;stroke-width:23.035;stroke-linecap:butt;stroke-linejoin:miter;stroke-miterlimit:10;stroke-dasharray:none;stroke-opacity:1"
             id="path3014" />
        </g>
      </g>
    </g>
    <g
       id="g3016"
       transform="matrix(0.73141828,0,0,-0.73141828,-726.03178,369.81685)">
      <g
         id="g3024"
         transform="translate(1134.6134,378.7599)">
        <path
           d="m 0,0 c 10.111,-16.741 36.395,-51.046 82.39,-51.899 5.12,-0.096 9.452,3.791 10.076,8.874 l 12.908,105.107 c 0.658,5.364 -5.128,9.149 -9.778,6.396 L 3.486,13.945 C -1.359,11.077 -2.91,4.82 0,0 Z"
           style="fill:none;stroke:#56043f;stroke-width:23.035;stroke-linecap:butt;stroke-linejoin:miter;stroke-miterlimit:10;stroke-dasharray:none;stroke-opacity:1"
           id="path3026" />
      </g>
      <g
         id="g3028"
         transform="translate(1232.5236,291.5558)">
        <path
           d="m 0,0 c 0,-53.804 -43.617,-97.421 -97.422,-97.421 -53.805,0 -97.422,43.617 -97.422,97.421 0,53.805 43.617,97.422 97.422,97.422 C -43.617,97.422 0,53.805 0,0"
           style="fill:#ede9c3;fill-opacity:1;fill-rule:nonzero;stroke:none"
           id="path3030" />
      </g>
      <g
         id="g3032"
         transform="translate(1232.5236,291.5558)">
        <path
           d="m 0,0 c 0,-53.804 -43.617,-97.421 -97.422,-97.421 -53.805,0 -97.422,43.617 -97.422,97.421 0,53.805 43.617,97.422 97.422,97.422 C -43.617,97.422 0,53.805 0,0 Z"
           style="fill:none;stroke:#56043f;stroke-width:1.92;stroke-linecap:butt;stroke-linejoin:miter;stroke-miterlimit:10;stroke-dasharray:none;stroke-opacity:1"
           id="path3034" />
      </g>
      <g
         id="g3036"
         transform="translate(1135.1017,325.8097)">
        <path
           d="m 0,0 c -0.664,0 -1.323,-0.022 -1.977,-0.065 -2.144,-0.142 -3.775,-1.998 -3.775,-4.149 v -18.821 c 0,-2.301 -1.865,-4.166 -4.165,-4.166 h -20.029 c -2.103,0 -3.929,-1.56 -4.138,-3.652 -0.331,-3.307 -0.19,-6.753 0.528,-10.289 2.99,-14.701 15.563,-25.943 30.509,-27.234 20.29,-1.753 37.301,14.198 37.301,34.122 C 34.254,-15.336 18.918,0 0,0"
           style="fill:#56043f;fill-opacity:1;fill-rule:nonzero;stroke:none"
           id="path3038" />
      </g>
      <g
         id="g3040"
         transform="translate(1134.6134,378.7599)">
        <path
           d="m 0,0 c 10.111,-16.741 36.395,-51.046 82.39,-51.899 5.12,-0.096 9.452,3.791 10.076,8.874 l 12.908,105.107 c 0.658,5.364 -5.128,9.149 -9.778,6.396 L 3.486,13.945 C -1.359,11.077 -2.91,4.82 0,0"
           style="fill:#ffffff;fill-opacity:1;fill-rule:nonzero;stroke:none"
           id="path3042" />
      </g>
    </g>
    <g
       id="g3044"
       transform="matrix(0.73141828,0,0,-0.73141828,-726.03178,369.81685)">
      <g
         id="g3046"
         clip-path="url(#clipPath3050)">
        <g
           id="g3052"
           transform="translate(1215.5099,479.1857)">
          <path
             d="M 0,0 C 0,0 39.238,-49.605 93.111,-46.404 L 72.246,-89.609 -7.7,-54.938 -36.503,-14.935 Z"
             style="fill:#ed0a46;fill-opacity:1;fill-rule:nonzero;stroke:none"
             id="path3054" />
        </g>
        <g
           id="g3056"
           transform="translate(1215.5099,479.1857)">
          <path
             d="M 0,0 C 0,0 39.238,-49.605 93.111,-46.404 L 72.246,-89.609 -7.7,-54.938 -36.503,-14.935 Z"
             style="fill:none;stroke:#ed0a46;stroke-width:1.92;stroke-linecap:butt;stroke-linejoin:miter;stroke-miterlimit:10;stroke-dasharray:none;stroke-opacity:1"
             id="path3058" />
        </g>
        <g
           id="g3060"
           transform="translate(1191.6857,455.3615)">
          <path
             d="M 0,0 C 0,0 28.829,-57.533 93.111,-46.404 L 72.246,-89.609 -7.7,-54.938 -36.503,-14.935 Z"
             style="fill:#35e61a;fill-opacity:1;fill-rule:nonzero;stroke:none"
             id="path3062" />
        </g>
        <g
           id="g3064"
           transform="translate(1191.6857,455.3615)">
          <path
             d="M 0,0 C 0,0 28.829,-57.533 93.111,-46.404 L 72.246,-89.609 -7.7,-54.938 -36.503,-14.935 Z"
             style="fill:none;stroke:#ed0a46;stroke-width:1.92;stroke-linecap:butt;stroke-linejoin:miter;stroke-miterlimit:10;stroke-dasharray:none;stroke-opacity:1"
             id="path3066" />
        </g>
        <g
           id="g3068"
           transform="translate(1173.7374,428.1789)">
          <path
             d="M 0,0 C 0,0 28.487,-53.12 93.111,-46.404 L 72.246,-89.609 -7.7,-54.939 -36.503,-14.935 Z"
             style="fill:#ed0a46;fill-opacity:1;fill-rule:nonzero;stroke:none"
             id="path3070" />
        </g>
        <g
           id="g3072"
           transform="translate(1173.7374,428.1789)">
          <path
             d="M 0,0 C 0,0 28.487,-53.12 93.111,-46.404 L 72.246,-89.609 -7.7,-54.939 -36.503,-14.935 Z"
             style="fill:none;stroke:#ed0a46;stroke-width:1.92;stroke-linecap:butt;stroke-linejoin:miter;stroke-miterlimit:10;stroke-dasharray:none;stroke-opacity:1"
             id="path3074" />
        </g>
        <g
           id="g3076"
           transform="translate(1146.34,413.2462)">
          <path
             d="M 0,0 C 0,0 30.71,-61.614 95.261,-57.764 L 82.794,-107.439 -21.95,-50.446 -51.602,3.466 Z"
             style="fill:#ffe027;fill-opacity:1;fill-rule:nonzero;stroke:none"
             id="path3078" />
        </g>
        <g
           id="g3080"
           transform="translate(1146.34,413.2462)">
          <path
             d="M 0,0 C 0,0 30.71,-61.614 95.261,-57.764 L 82.794,-107.439 -21.95,-50.446 -51.602,3.466 Z"
             style="fill:none;stroke:#ed0a46;stroke-width:1.92;stroke-linecap:butt;stroke-linejoin:miter;stroke-miterlimit:10;stroke-dasharray:none;stroke-opacity:1"
             id="path3082" />
        </g>
      </g>
    </g>
    <g
       id="g3084"
       transform="matrix(0.73141828,0,0,-0.73141828,-726.03178,369.81685)">
      <g
         id="g3086"
         clip-path="url(#clipPath3090)">
        <g
           id="g3092"
           transform="translate(1134.6134,378.7599)">
          <path
             d="m 0,0 c 10.111,-16.741 36.395,-51.046 82.39,-51.899 5.12,-0.096 9.452,3.791 10.076,8.874 l 12.908,105.107 c 0.658,5.364 -5.128,9.149 -9.778,6.396 L 3.486,13.945 C -1.359,11.077 -2.91,4.82 0,0 Z"
             style="fill:none;stroke:#56043f;stroke-width:5.759;stroke-linecap:butt;stroke-linejoin:miter;stroke-miterlimit:10;stroke-dasharray:none;stroke-opacity:1"
             id="path3094" />
        </g>
      </g>
    </g>
  </g>
</svg>
